<svg xmlns="http://www.w3.org/2000/svg" width="830" height="1090" viewBox="0 35 830 1090"><rect width="850" height="1160" fill="white"/><defs><marker id="punta" viewBox="0 0 10 10" refX="9" refY="5" markerWidth="8" markerHeight="8" orient="auto"><path d="M0 0 L10 5 L0 10" fill="none" stroke="#1b1b1f" stroke-width="1.3"/></marker></defs><g font-family="Arial, sans-serif" fill="#1b1b1f">
<rect x="310" y="70" width="240" height="60" rx="5" fill="white" stroke="#1b1b1f" stroke-width="1.5"/>
<text x="430" y="106.375" text-anchor="middle" font-size="17">Iniciar sesión</text>
<polygon points="430,170 535,220 430,270 325,220" fill="white" stroke="#1b1b1f" stroke-width="1.5"/>
<text x="430" y="215.75" text-anchor="middle" font-size="17">¿Credenciales</text>
<text x="430" y="237" text-anchor="middle" font-size="17">correctas?</text>
<rect x="35" y="175" width="210" height="70" rx="5" fill="white" stroke="#1b1b1f" stroke-width="1.5"/>
<text x="140" y="205.75" text-anchor="middle" font-size="17">Mostrar error</text>
<text x="140" y="227" text-anchor="middle" font-size="17">Corregir acceso</text>
<polygon points="430,315 535,365 430,415 325,365" fill="white" stroke="#1b1b1f" stroke-width="1.5"/>
<text x="430" y="371.375" text-anchor="middle" font-size="17">¿Administrador?</text>
<rect x="35" y="330" width="235" height="75" rx="5" fill="white" stroke="#1b1b1f" stroke-width="1.5"/>
<text x="152.5" y="363.25" text-anchor="middle" font-size="17">Área de cliente</text>
<text x="152.5" y="384.5" text-anchor="middle" font-size="17">Sin acceso al panel</text>
<rect x="290" y="465" width="280" height="65" rx="5" fill="white" stroke="#1b1b1f" stroke-width="1.5"/>
<text x="430" y="503.875" text-anchor="middle" font-size="17">Panel de administración</text>
<rect x="70" y="580" width="270" height="75" rx="5" fill="white" stroke="#1b1b1f" stroke-width="1.5"/>
<text x="205" y="613.25" text-anchor="middle" font-size="17">Productos</text>
<text x="205" y="634.5" text-anchor="middle" font-size="17">Listado / nuevo / editar</text>
<rect x="520" y="580" width="270" height="75" rx="5" fill="white" stroke="#1b1b1f" stroke-width="1.5"/>
<text x="655" y="613.25" text-anchor="middle" font-size="17">Usuarios</text>
<text x="655" y="634.5" text-anchor="middle" font-size="17">Listado / validar nuevo</text>
<rect x="290" y="725" width="280" height="75" rx="5" fill="white" stroke="#1b1b1f" stroke-width="1.5"/>
<text x="430" y="758.25" text-anchor="middle" font-size="17">Formulario seleccionado</text>
<text x="430" y="779.5" text-anchor="middle" font-size="17">Producto o usuario</text>
<polygon points="430,855 535,907.5 430,960 325,907.5" fill="white" stroke="#1b1b1f" stroke-width="1.5"/>
<text x="430" y="913.875" text-anchor="middle" font-size="17">¿Datos válidos?</text>
<rect x="590" y="865" width="220" height="75" rx="5" fill="white" stroke="#1b1b1f" stroke-width="1.5"/>
<text x="700" y="898.25" text-anchor="middle" font-size="17">Errores por campo</text>
<text x="700" y="919.5" text-anchor="middle" font-size="17">Corregir formulario</text>
<rect x="290" y="1030" width="280" height="75" rx="5" fill="white" stroke="#1b1b1f" stroke-width="1.5"/>
<text x="430" y="1063.25" text-anchor="middle" font-size="17">Mostrar vista previa</text>
<text x="430" y="1084.5" text-anchor="middle" font-size="17">Sin guardar cambios</text>
<polyline points="430,130 430,170" fill="none" stroke="#1b1b1f" stroke-width="1.5" marker-end="url(#punta)"/>
<polyline points="325,220 245,220" fill="none" stroke="#1b1b1f" stroke-width="1.5" marker-end="url(#punta)"/>
<text x="275" y="201" font-size="14">No</text>
<polyline points="140,175 140,100 310,100" fill="none" stroke="#1b1b1f" stroke-width="1.5" marker-end="url(#punta)"/>
<text x="150" y="81" font-size="14">Reintentar</text>
<polyline points="430,270 430,315" fill="none" stroke="#1b1b1f" stroke-width="1.5" marker-end="url(#punta)"/>
<text x="443" y="296" font-size="14">Sí</text>
<polyline points="325,365 270,365" fill="none" stroke="#1b1b1f" stroke-width="1.5" marker-end="url(#punta)"/>
<text x="279" y="348" font-size="14">No</text>
<polyline points="430,415 430,465" fill="none" stroke="#1b1b1f" stroke-width="1.5" marker-end="url(#punta)"/>
<text x="444" y="451" font-size="14">Sí</text>
<polyline points="340,530 205,555 205,580" fill="none" stroke="#1b1b1f" stroke-width="1.5" marker-end="url(#punta)"/>
<polyline points="520,530 655,555 655,580" fill="none" stroke="#1b1b1f" stroke-width="1.5" marker-end="url(#punta)"/>
<polyline points="205,655 205,765 290,765" fill="none" stroke="#1b1b1f" stroke-width="1.5" marker-end="url(#punta)"/>
<polyline points="655,655 655,765 570,765" fill="none" stroke="#1b1b1f" stroke-width="1.5" marker-end="url(#punta)"/>
<polyline points="430,800 430,855" fill="none" stroke="#1b1b1f" stroke-width="1.5" marker-end="url(#punta)"/>
<polyline points="535,907 590,907" fill="none" stroke="#1b1b1f" stroke-width="1.5" marker-end="url(#punta)"/>
<text x="551" y="895" font-size="14">No</text>
<polyline points="700,865 700,700 500,700 500,725" fill="none" stroke="#1b1b1f" stroke-width="1.5" marker-end="url(#punta)"/>
<text x="601" y="685" font-size="14">Volver</text>
<polyline points="430,960 430,1030" fill="none" stroke="#1b1b1f" stroke-width="1.5" marker-end="url(#punta)"/>
<text x="447" y="1007" font-size="14">Sí</text>
<polyline points="290,1067 20,1067 20,498 290,498" fill="none" stroke="#1b1b1f" stroke-width="1.5" marker-end="url(#punta)"/>
<text x="45" y="1006" font-size="14">Volver al panel</text>
</g></svg>
